{"title":"Captain America, The First Avenger 2011 DVDrip English Klam","uid":10974417,"size":1805079045,"categoryP":"video","categoryS":"movies","magnet":"?xt=urn:btih:91dad1b57958f6f427a954916f96ac2b90c217ba&amp;dn=Captain+America%2C+The+First+Avenger+2011+DVDrip+English+Klam&amp;tr=udp%3A%2F%2Ftracker.openbittorrent.com%3A80&amp;tr=udp%3A%2F%2Fopen.demonii.com%3A1337&amp;tr=udp%3A%2F%2Ftracker.coppersurfer.tk%3A6969&amp;tr=udp%3A%2F%2Fexodus.desync.com%3A6969","seeders":5,"leechers":1,"uploader":"Klambake","files":-1,"time":1409828272,"description":"With: gisseerd door Joe Johnston\nmet Chris Evans, Hugo Weaving and Tommy Lee Jones\n\nEen dappere, maar zachtaardige jonge soldaat genaamd Steve Rogers moet aan een aantal experimenten deelnemen voor het Amerikaanse leger, het zogenaamde Super Soldier programma. Maar wanneer het experiment wordt stopgezet besluiten ze Steve te gebruiken om het imago van het Amerikaanse leger te verbeteren.\n\nAfter being deemed unfit for military service, Steve Rogers volunteers for a top secret research project that turns him into Captain America, a superhero dedicated to defending USA ideals.\n &lt;a href=&quot;\nhttp://www.imdb.com/title/tt0458339&quot; rel=&quot;nofollow&quot; target=&quot;_NEW&quot;&gt;\nhttp://www.imdb.com/title/tt0458339&lt;/a&gt;\t\n\n--------------------- Dutch Friends 4ever ---------------------\n---------------------------------------------------------------\n- Bezoek ook eens mijn vrienden op: &lt;a href=&quot; http://www.Film-Test.nl&quot; rel=&quot;nofollow&quot; target=&quot;_NEW&quot;&gt; http://www.Film-Test.nl&lt;/a&gt; --\n----- voor mijn Nederlandse Sync. ondertitels ---- en meer ----\n------- http://www.Film-Test.nl ---- Over Films en meer -------\n---------------------------------------------------------------\n &lt;a href=&quot;\nhttp://i.imgur.com/CtkH5ao.jpg&quot; rel=&quot;nofollow&quot; target=&quot;_NEW&quot;&gt;\nhttp://i.imgur.com/CtkH5ao.jpg&lt;/a&gt; &lt;a href=&quot;\nhttp://i.imgur.com/nc58OTB.jpg&quot; rel=&quot;nofollow&quot; target=&quot;_NEW&quot;&gt;\nhttp://i.imgur.com/nc58OTB.jpg&lt;/a&gt; &lt;a href=&quot;\nhttp://i.imgur.com/FuIIc5t.jpg&quot; rel=&quot;nofollow&quot; target=&quot;_NEW&quot;&gt;\nhttp://i.imgur.com/FuIIc5t.jpg&lt;/a&gt;\n\nGeneral:\n\nComplete name                            : Captain AmericaThe First Avenger.avi\nFormat                                   : AVI\nFormat/Info                              : Audio Video Interleave\nFile size                                : 1.68 GiB\nDuration                                 : 1h 59mn\nOverall bit rate                         : 2 021 Kbps\n\nVideo:\n\nFormat                                   : MPEG-4 Visual\nFormat profile                           : Simple@L3\nFormat settings, BVOP                    : No\nFormat settings, QPel                    : No\nFormat settings, GMC                     : No warppoints\nFormat settings, Matrix                  : Default (H.263)\nCodec ID                                 : XVID\nCodec ID/Hint                            : XviD\nDuration                                 : 1h 59mn\nSource duration                          : 1h 59mn\nBit rate                                 : 1 562 Kbps\nWidth                                    : 720 pixels\nHeight                                   : 304 pixels\nDisplay aspect ratio                     : 2.35:1\nFrame rate                               : 25.000 fps\nColor space                              : YUV\nChroma subsampling                       : 4:2:0\nBit depth                                : 8 bits\nScan type                                : Progressive\nCompression mode                         : Lossy\nBits/(Pixel*Frame)                       : 0.285\nStream size                              : 1.30 GiB (77%)\nWriting library                          : XviD 1.1.2 (UTC 2006-11-01)\n\nAudio:\n\nFormat                                   : AC-3\nFormat/Info                              : Audio Coding 3\nMode extension                           : CM (complete main)\nFormat settings, Endianness              : Big\nCodec ID                                 : 2000\nDuration                                 : 1h 59mn\nBit rate mode                            : Constant\nBit rate                                 : 448 Kbps\nChannel(s)                               : 6 channels\nChannel positions                        : Front: L C R, Side: L R, LFE\nSampling rate                            : 48.0 KHz\nBit depth                                : 16 bits\nCompression mode                         : Lossy\nStream size                              : 382 MiB (22%)\nAlignment                                : Aligned on interleaves\nInterleave, duration                     : 32 ms (0.80 video frame)\n\n\n","torrent":{"xt":"urn:btih:91dad1b57958f6f427a954916f96ac2b90c217ba","amp;dn":"Captain+America%2C+The+First+Avenger+2011+DVDrip+English+Klam","amp;tr":["udp%3A%2F%2Ftracker.openbittorrent.com%3A80","udp%3A%2F%2Fopen.demonii.com%3A1337","udp%3A%2F%2Ftracker.coppersurfer.tk%3A6969","udp%3A%2F%2Fexodus.desync.com%3A6969"],"infoHash":"91dad1b57958f6f427a954916f96ac2b90c217ba","infoHashBuffer":{"type":"Buffer","data":[145,218,209,181,121,88,246,244,39,169,84,145,111,150,172,43,144,194,23,186]},"announce":[],"urlList":[]}}